<?xml version="1.0" encoding="utf-8"?>
<!-- Svg Vector Icons : http://www.onlinewebfonts.com/icon -->
<!DOCTYPE svg PUBLIC "-//W3C//DTD SVG 1.1//EN" "http://www.w3.org/Graphics/SVG/1.1/DTD/svg11.dtd">
<svg version="1.1" xmlns="http://www.w3.org/2000/svg" xmlns:xlink="http://www.w3.org/1999/xlink" x="0px" y="0px" viewBox="0 0 1000 1000" enable-background="new 0 0 1000 1000" xml:space="preserve">
<metadata> Svg Vector Icons : http://www.onlinewebfonts.com/icon </metadata>
<g>
    <path stroke="#01f00d" fill="#01f00d" stroke-width="2" d="M785.8,990H214.2C99.8,990,10,900.2,10,785.8V214.2C10,99.8,99.8,10,214.2,10h571.7C900.2,10,990,99.8,990,214.2v571.7C990,900.2,900.2,990,785.8,990z M214.2,91.7c-69.4,0-122.5,53.1-122.5,122.5v571.7c0,69.4,53.1,122.5,122.5,122.5h571.7c69.4,0,122.5-53.1,122.5-122.5V214.2c0-69.4-53.1-122.5-122.5-122.5H214.2z"/>
    <path stroke="#01f00d" fill="#01f00d" stroke-width="2" d="M377.5,418.3c-12.3,0-20.4-4.1-28.6-12.3L226.4,283.6c-16.3-16.3-16.3-40.8,0-57.2s40.8-16.3,57.2,0l122.5,122.5c16.3,16.3,16.3,40.8,0,57.2C397.9,414.3,389.8,418.3,377.5,418.3z"/>
    <path stroke="#01f00d" fill="#01f00d" d="M255,540.8c-12.3,0-20.4-4.1-28.6-12.3c-16.3-16.3-16.3-40.8,0-57.2l122.5-122.5c16.3-16.3,40.8-16.3,57.2,0c16.3,16.3,16.3,40.8,0,57.2L283.6,528.6C275.4,536.8,267.3,540.8,255,540.8z"/>
    <path stroke="#01f00d" fill="#01f00d" stroke-width="2" d="M622.5,540.8H459.2c-24.5,0-40.8-16.3-40.8-40.8c0-24.5,16.3-40.8,40.8-40.8h163.3c24.5,0,40.8,16.3,40.8,40.8C663.3,524.5,647,540.8,622.5,540.8z"/></g>
</svg>